<svg xmlns="http://www.w3.org/2000/svg" viewBox="0 0 72 72" xml:space="preserve"><path fill="#07afe0" d="M0 0h72v72H0z"/><path d="M36 19.948c.162 0 .32.043.46.125l13.585 7.962c.278.162.45.463.45.785v13.44a.907.907 0 0 1-.412.761l-13.585 8.883a.908.908 0 0 1-.996 0L21.917 43.02a.907.907 0 0 1-.412-.761V28.82c0-.322.172-.623.45-.785l13.585-7.962a.911.911 0 0 1 .46-.125m0-1.956c-.5 0-1.002.131-1.45.393l-13.584 7.962a2.866 2.866 0 0 0-1.417 2.473v13.44c0 .967.488 1.869 1.298 2.398l13.584 8.883a2.863 2.863 0 0 0 3.138 0l13.584-8.883a2.866 2.866 0 0 0 1.298-2.398V28.82c0-1.017-.54-1.958-1.417-2.473l-13.585-7.962A2.864 2.864 0 0 0 36 17.992z" fill="#fff"/></svg>